<svg height="512pt" viewBox="0 -53 512.00004 512" width="512pt" xmlns="http://www.w3.org/2000/svg"><path d="m359.433594 101.058594c-4.527344 0-9 .210937-13.433594.597656v-33.847656c-.007812-2.101563-.859375-4.113282-2.363281-5.578125-1.503907-1.46875-3.535157-2.273438-5.636719-2.230469h-22v-52.191406c-.007812-2.101563-.859375-4.113282-2.363281-5.578125-1.503907-1.46875-3.535157-2.2734378-5.636719-2.230469h-280c-2.101562-.0429688-4.132812.761719-5.636719 2.230469-1.503906 1.464843-2.355469 3.476562-2.363281 5.578125v60c-.015625 4.457031 3.546875 8.101562 8 8.191406h22v44h-22c-2.101562-.042969-4.132812.761719-5.636719 2.230469-1.503906 1.464843-2.355469 3.476562-2.363281 5.578125v112.191406h-12c-2.101562-.042969-4.132812.761719-5.636719 2.230469-1.503906 1.464843-2.3554685 3.476562-2.363281 5.578125v60c-.015625 4.457031 3.546875 8.101562 8 8.191406h12v51.808594c-.015625 4.457031 3.546875 8.101562 8 8.191406h240.160156c26.351563 19.699219 58.375 30.324219 91.273438 30.289062 84.125 0 152.566406-68.488281 152.566406-152.617187 0-84.125-68.441406-152.613281-152.566406-152.613281zm-136.304688 160.941406h30.324219c1.765625 22.484375 10.664063 43.816406 25.402344 60.890625l-21.433594 21.429687c-20.355469-22.804687-32.4375-51.804687-34.292969-82.320312zm34.585938-99.398438 21.425781 21.425782c-15.074219 17.320312-24.109375 39.070312-25.742187 61.972656h-30.320313c1.710937-30.929688 13.929687-60.355469 34.636719-83.398438zm101.71875 181.332032c-49.875 0-90.308594-40.433594-90.308594-90.308594s40.429688-90.304688 90.304688-90.304688 90.308593 40.429688 90.308593 90.304688c-.058593 49.851562-40.453125 90.25-90.304687 90.308594zm69.265625-170.886719c-17.542969-15.140625-39.570313-24.105469-62.699219-25.519531v-30.308594c31.15625 1.480469 60.859375 13.625 84.125 34.398438zm-78.699219-25.304687c-21.953125 1.941406-42.75 10.691406-59.496094 25.019531l-21.4375-21.4375c22.488282-19.945313 50.945313-31.878907 80.933594-33.933594zm-59.832031 186.460937c16.800781 14.496094 37.730469 23.347656 59.832031 25.304687v30.355469c-30.136719-2.070312-58.726562-14.113281-81.261719-34.230469zm75.832031 25.519531c23.28125-1.421875 45.4375-10.496094 63.03125-25.804687l21.425781 21.425781c-23.316406 20.949219-53.148437 33.203125-84.457031 34.6875zm74.300781-37.171875c14.566407-17.015625 23.355469-38.21875 25.109375-60.550781h30.324219c-1.84375 30.363281-13.816406 59.234375-34 81.992188zm25.160157-76.550781c-1.621094-22.75-10.546876-44.371094-25.449219-61.636719l21.429687-21.433593c20.53125 23 32.640625 52.289062 34.339844 83.070312zm-429.460938-230h264v44h-264zm30 60h264v27.917969c-15.566406 3.054687-30.300781 8.082031-43.785156 16.082031h-220.214844zm-30 60h226.601562c-14.941406 12.171875-27.386718 27.109375-36.65625 44h-189.945312zm0 60h182.253906c-5.8125 14.035156-9.4375 28.871094-10.753906 44h-171.5zm-20 60h190.890625c.230469 14.9375 2.628906 29.757812 7.125 44h-198.015625zm20 60h184.121094c7.480468 16.207031 17.570312 31.070312 29.867187 44h-213.988281zm0 0"/><path d="m427.367188 234.082031c-.941407-2.898437-3.445313-5.007812-6.457032-5.445312l-37.820312-5.5-16.914063-34.273438c-1.347656-2.730469-4.128906-4.457031-7.175781-4.457031s-5.828125 1.726562-7.175781 4.457031l-16.914063 34.273438-37.820312 5.5c-3.011719.4375-5.515625 2.546875-6.457032 5.445312-.941406 2.894531-.15625 6.074219 2.023438 8.199219l27.367188 26.675781-6.460938 37.667969c-.511719 3.003906.71875 6.035156 3.183594 7.828125 2.464844 1.789063 5.730468 2.023437 8.425781.609375l33.828125-17.789062 33.828125 17.789062c2.695313 1.414062 5.960937 1.179688 8.425781-.609375 2.464844-1.792969 3.699219-4.824219 3.183594-7.828125l-6.460938-37.667969 27.367188-26.675781c2.179688-2.125 2.964844-5.304688 2.023438-8.199219zm-43.566407 26.355469c-1.886719 1.839844-2.746093 4.484375-2.300781 7.082031l4.433594 25.835938-23.203125-12.199219c-2.328125-1.226562-5.113281-1.226562-7.445313 0l-23.199218 12.199219 4.433593-25.835938c.445313-2.597656-.417969-5.242187-2.300781-7.082031l-18.773438-18.300781 25.941407-3.769531c2.605469-.378907 4.859375-2.015626 6.023437-4.375l11.589844-23.507813 11.601562 23.507813c1.164063 2.363281 3.414063 4 6.019532 4.378906l25.941406 3.769531zm0 0"/></svg>